<?xml version="1.0" encoding="UTF-8" standalone="no"?>
<!-- Created with Inkscape (http://www.inkscape.org/) -->

<svg
   xmlns:dc="http://purl.org/dc/elements/1.1/"
   xmlns:cc="http://creativecommons.org/ns#"
   xmlns:rdf="http://www.w3.org/1999/02/22-rdf-syntax-ns#"
   xmlns:svg="http://www.w3.org/2000/svg"
   xmlns="http://www.w3.org/2000/svg"
   xmlns:sodipodi="http://sodipodi.sourceforge.net/DTD/sodipodi-0.dtd"
   xmlns:inkscape="http://www.inkscape.org/namespaces/inkscape"
   id="svg2"
   height="24"
   width="144"
   version="1.1"
   inkscape:version="0.48.4 r9939"
   sodipodi:docname="logo.svg">
  <defs
     id="defs8" />
  <sodipodi:namedview
     pagecolor="#ffffff"
     bordercolor="#666666"
     borderopacity="1"
     objecttolerance="10"
     gridtolerance="10"
     guidetolerance="10"
     inkscape:pageopacity="0"
     inkscape:pageshadow="2"
     inkscape:window-width="1920"
     inkscape:window-height="1148"
     id="namedview6"
     showgrid="true"
     inkscape:snap-bbox="true"
     inkscape:zoom="3.20763"
     inkscape:cx="119.216"
     inkscape:cy="-17.0856"
     inkscape:window-x="0"
     inkscape:window-y="0"
     inkscape:window-maximized="1"
     inkscape:current-layer="svg2"
     fit-margin-top="0"
     fit-margin-left="0"
     fit-margin-right="0"
     fit-margin-bottom="0">
    <inkscape:grid
       type="xygrid"
       id="grid2985"
       empspacing="4"
       visible="true"
       enabled="true"
       snapvisiblegridlinesonly="true"
       originx="-13.0035px"
       originy="1.99605px" />
  </sodipodi:namedview>
  <metadata
     id="metadata7">
    <rdf:RDF>
      <cc:Work
         rdf:about="">
        <dc:format>image/svg+xml</dc:format>
        <dc:type
           rdf:resource="http://purl.org/dc/dcmitype/StillImage" />
        <dc:title />
      </cc:Work>
    </rdf:RDF>
  </metadata>
  <path
     style="fill:#ffffff"
     d="M 53.9965,1.00398 53.9965,21.0039 55.9965,21.0039 55.9965,1.00398 z M 125.996,1.00398 125.996,3.00398 127.996,3.00398 127.996,1.00398 z M 125.996,5.00398 125.996,21.0039 127.996,21.0039 127.996,5.00398 z M 44.9965,6.00398 C 40.5782,6.00398 36.9965,9.36398 36.9965,13.5039 36.9965,17.6439 40.5782,21.0039 44.9965,21.0039 48.0605,21.0039 50.715,19.3739 52.059,17.0039 L 49.6215,17.0039 C 48.5205,18.2239 46.8605,19.0039 44.9965,19.0039 41.6828,19.0039 38.9965,16.5439 38.9965,13.5039 38.9965,10.464 41.6828,8.00398 44.9965,8.00398 46.8605,8.00398 48.5205,8.78398 49.6215,10.004 L 52.059,10.004 C 50.715,7.63398 48.0605,6.00398 44.9965,6.00398 z M 65.9965,6.00398 C 61.5785,6.00398 57.9965,9.36398 57.9965,13.5039 57.9965,17.6439 61.5785,21.0039 65.9965,21.0039 69.4745,21.0039 72.4257,18.9139 73.5277,16.0039 L 71.3403,16.0039 C 70.3483,17.7839 68.3275,19.0039 65.9965,19.0039 62.8665,19.0039 60.3037,16.8039 60.0277,14.0039 L 70.9965,14.0039 71.9653,14.0039 73.9653,14.0039 C 73.9763,13.8439 73.9965,13.6739 73.9965,13.5039 73.9965,9.36398 70.4145,6.00398 65.9965,6.00398 z M 82.9965,6.00398 C 78.5785,6.00398 74.9965,9.36398 74.9965,13.5039 74.9965,17.6439 78.5785,21.0039 82.9965,21.0039 85.3845,21.0039 87.5305,20.0226 88.9965,18.4727 L 88.9965,21.0039 90.9965,21.0039 90.9965,13.5039 90.9965,8.00398 90.9965,6.00398 z M 92.9965,6.00398 92.9965,21.0039 94.9965,21.0039 94.9965,8.00398 99.9965,8.00398 99.9965,6.00398 94.9965,6.00398 z M 101.996,6.00398 101.996,21.0039 103.996,21.0039 103.996,8.00398 108.996,8.00398 109.496,8.00398 C 110.877,8.00398 111.996,8.90398 111.996,10.004 L 111.996,11.5039 111.996,13.0039 111.996,21.0039 113.996,21.0039 113.996,13.0039 113.996,11.5039 C 113.996,9.57398 115.787,8.00398 117.996,8.00398 120.205,8.00398 121.996,9.57398 121.996,11.5039 L 121.996,21.0039 123.996,21.0039 123.996,11.5039 C 123.996,8.46398 121.31,6.00398 117.996,6.00398 116.132,6.00398 114.472,6.78398 113.371,8.00398 112.593,6.80398 111.162,6.00398 109.496,6.00398 L 108.996,6.00398 103.996,6.00398 z M 129.996,6.00398 129.996,21.0039 131.996,21.0039 131.996,8.00398 136.996,8.00398 137.996,8.00398 C 140.206,8.00398 141.996,9.57398 141.996,11.5039 L 141.996,21.0039 143.996,21.0039 143.996,11.5039 C 143.996,8.46398 141.306,6.00398 137.996,6.00398 L 136.996,6.00398 131.996,6.00398 z M 65.9965,8.00398 C 68.7365,8.00398 71.0285,9.70398 71.7465,12.0039 L 60.2465,12.0039 C 60.9645,9.70398 63.2565,8.00398 65.9965,8.00398 z M 82.9965,8.00398 88.9965,8.00398 88.9965,13.0039 88.9655,13.0039 C 88.9815,13.1739 88.9965,13.3339 88.9965,13.5039 88.9965,16.5439 86.3105,19.0039 82.9965,19.0039 79.6825,19.0039 76.9965,16.5439 76.9965,13.5039 76.9965,10.464 79.6825,8.00398 82.9965,8.00398 z"
     id="rect3113"
     inkscape:connector-curvature="0"
     sodipodi:nodetypes="cccccccccccccccsssccsssccssssccsccccsssssccccccscccccccccccccsscccccsssccsscsccccccccssccsscccsccsscccssss" />
  <g
     style="font-size:40px;font-style:normal;font-weight:normal;line-height:125%;letter-spacing:0px;word-spacing:0px;opacity:0.75285199999999997;fill:#ffffff;fill-opacity:1;stroke:none;font-family:Sans"
     id="text3758"
     transform="matrix(0.649999,0,0,0.636363,28.035,56.5714)">
    <path
       d="M -14.9889,-70.3158 C -14.7062,-70.5985 -14.5648,-70.9333 -14.5648,-71.3202 -14.5648,-71.7071 -14.7062,-72.0419 -14.9889,-72.3247 -15.2716,-72.6074 -15.6065,-72.7488 -15.9933,-72.7488 -18.5529,-72.7488 -20.919,-72.3768 -23.0916,-71.6327 -25.2642,-70.9035 -27.1987,-69.9065 -28.8951,-68.6417 -30.5767,-67.3916 -32.3252,-65.7622 -34.1407,-63.7533 -34.4234,-63.4408 -34.5648,-63.1059 -34.5648,-62.7488 -34.5648,-62.3619 -34.4234,-62.0271 -34.1407,-61.7443 -33.8579,-61.4616 -33.5231,-61.3202 -33.1362,-61.3202 -32.7791,-61.3202 -32.4442,-61.4616 -32.1317,-61.7443 -31.73,-62.1015 -31.1794,-62.6297 -30.4799,-63.3292 -29.7806,-64.0285 -29.282,-64.5196 -28.9844,-64.8024 -26.9457,-66.6476 -24.9517,-67.9571 -23.0023,-68.7309 -21.038,-69.5047 -18.7017,-69.8916 -15.9933,-69.8917 -15.6065,-69.8916 -15.2716,-70.033 -14.9889,-70.3158 M -3.1362,-75.7399 C -3.13624,-74.3262 -3.28505,-72.8901 -3.58263,-71.4318 -4.26719,-68.0985 -5.64368,-65.2488 -7.71209,-62.8827 -9.7657,-60.5166 -12.4219,-58.5226 -15.6808,-56.9006 -18.8654,-55.2934 -22.1243,-54.4899 -25.4576,-54.4899 -27.66,-54.4899 -29.788,-54.8396 -31.8416,-55.539 -32.0648,-55.6134 -32.7195,-55.9259 -33.8058,-56.4765 -34.8922,-57.0271 -35.6064,-57.3024 -35.9487,-57.3024 -36.1868,-57.3024 -36.4844,-57.0643 -36.8416,-56.5881 -37.1838,-56.1119 -37.5186,-55.5911 -37.846,-55.0256 -38.1585,-54.4601 -38.5454,-53.9393 -39.0067,-53.4631 -39.468,-52.9869 -39.9145,-52.7488 -40.346,-52.7488 -40.7925,-52.7488 -41.1719,-52.8306 -41.4844,-52.9943 -41.7969,-53.158 -42.0276,-53.3366 -42.1764,-53.53 -42.3252,-53.7235 -42.5261,-54.036 -42.7791,-54.4675 -42.8088,-54.5271 -42.8535,-54.6089 -42.913,-54.7131 -42.9725,-54.8172 -43.0172,-54.8917 -43.0469,-54.9363 -43.0618,-54.9809 -43.0841,-55.0479 -43.1139,-55.1372 -43.1288,-55.2414 -43.1362,-55.3455 -43.1362,-55.4497 -43.1362,-55.9705 -42.9055,-56.5137 -42.4442,-57.0792 -41.9829,-57.6595 -41.477,-58.1506 -40.9264,-58.5524 -40.3758,-58.9541 -39.8698,-59.3708 -39.4085,-59.8024 -38.9472,-60.2339 -38.7166,-60.5911 -38.7166,-60.8738 -38.7166,-60.9333 -38.8207,-61.2161 -39.0291,-61.722 -39.2374,-62.228 -39.3564,-62.5553 -39.3862,-62.7042 -39.5201,-63.4631 -39.5871,-64.2369 -39.5871,-65.0256 -39.5871,-66.7369 -39.2672,-68.3738 -38.6273,-69.9363 -37.9725,-71.4988 -37.0871,-72.8678 -35.971,-74.0434 -34.8401,-75.2339 -33.5678,-76.2681 -32.1541,-77.1461 -30.7404,-78.039 -29.2225,-78.7532 -27.6005,-79.289 -26.782,-79.5568 -25.7032,-79.7428 -24.3639,-79.847 -23.0246,-79.966 -21.6928,-80.033 -20.3683,-80.0479 -19.0291,-80.0776 -17.6972,-80.1223 -16.3728,-80.1818 -15.0484,-80.2562 -13.8356,-80.4348 -12.7344,-80.7175 -11.6184,-81.0151 -10.7702,-81.4392 -10.1898,-81.9899 -10.041,-82.1386 -9.82522,-82.3544 -9.54245,-82.6372 -9.24486,-82.9348 -9.02165,-83.1431 -8.87281,-83.2622 -8.72403,-83.3961 -8.52314,-83.5449 -8.27013,-83.7086 -8.01719,-83.8872 -7.74933,-84.0062 -7.46656,-84.0658 -7.16897,-84.1401 -6.84159,-84.1773 -6.48441,-84.1774 -5.90409,-84.1773 -5.38326,-83.8351 -4.92191,-83.1506 -4.44576,-82.466 -4.08862,-81.6327 -3.85049,-80.6506 -3.61243,-79.6684 -3.43386,-78.7458 -3.31477,-77.8827 -3.19576,-77.0196 -3.13624,-76.3053 -3.1362,-75.7399"
       id="path3763"
       inkscape:connector-curvature="0"
       style="fill:#ffffff" />
  </g>
</svg>
